<svg width="712" height="712" viewBox="0 0 712 712" fill="none" xmlns="http://www.w3.org/2000/svg">
<g opacity="0.6">
<path d="M356.729 550.036H356.383C355.404 550.036 354.438 550.036 353.473 550.007L353.775 529.257C354.64 529.272 355.519 529.272 356.383 529.272H356.729V550.036ZM364.035 549.892L363.242 529.157C364.107 529.128 364.971 529.085 365.836 529.041L366.96 549.777C365.994 549.805 365.015 549.849 364.035 549.892ZM346.182 549.777C345.216 549.719 344.251 549.661 343.285 549.604L344.654 528.897C345.519 528.955 346.398 529.013 347.277 529.056L346.182 549.777ZM374.251 549.229L372.334 528.566C373.213 528.479 374.078 528.393 374.943 528.306L377.133 548.955C376.182 549.042 375.216 549.128 374.251 549.229ZM336.009 548.97C335.029 548.869 334.063 548.754 333.098 548.638L335.591 528.033C336.455 528.134 337.305 528.234 338.17 528.321L336.009 548.97ZM384.395 548.019L381.383 527.485C382.248 527.355 383.113 527.226 383.977 527.082L387.277 547.572C386.326 547.73 385.36 547.875 384.395 548.019ZM325.864 547.63C324.899 547.471 323.934 547.313 322.968 547.14L326.556 526.693C327.406 526.837 328.256 526.981 329.107 527.125L325.864 547.63ZM394.453 546.289L390.404 525.929C391.254 525.756 392.104 525.583 392.94 525.396L397.32 545.684C396.369 545.9 395.404 546.088 394.453 546.289ZM315.807 545.756C314.856 545.555 313.905 545.338 312.954 545.122L317.608 524.891C318.458 525.093 319.308 525.28 320.158 525.453L315.807 545.756ZM404.438 544.013L399.265 523.912C400.116 523.695 400.951 523.479 401.787 523.249L407.248 543.278C406.326 543.523 405.375 543.768 404.438 544.013ZM305.879 543.364C304.928 543.105 303.991 542.846 303.055 542.572L308.789 522.615C309.625 522.86 310.447 523.09 311.297 523.306L305.879 543.364ZM414.266 541.203L408.055 521.39C408.891 521.13 409.712 520.871 410.534 520.597L417.047 540.31C416.124 540.612 415.188 540.915 414.266 541.203ZM296.08 540.425C295.158 540.122 294.236 539.805 293.328 539.503L300.072 519.862C300.908 520.151 301.743 520.424 302.579 520.698L296.08 540.425ZM423.934 537.889L416.657 518.45C417.479 518.148 418.286 517.831 419.093 517.514L426.643 536.851C425.75 537.197 424.842 537.543 423.934 537.889ZM286.426 536.967C285.518 536.606 284.611 536.246 283.703 535.886L291.513 516.649C292.32 516.981 293.127 517.298 293.948 517.615L286.426 536.967ZM433.387 534.07L425.13 515.021C425.923 514.675 426.701 514.329 427.493 513.969L436.052 532.874C435.173 533.292 434.28 533.681 433.387 534.07ZM276.988 533.004C276.095 532.6 275.201 532.197 274.322 531.779L283.155 512.989C283.948 513.364 284.726 513.724 285.533 514.084L276.988 533.004ZM442.637 529.762L433.358 511.202C434.136 510.813 434.9 510.424 435.678 510.021L445.246 528.451C444.367 528.883 443.502 529.315 442.637 529.762ZM267.766 528.537C266.902 528.09 266.051 527.644 265.187 527.183L274.971 508.882C275.749 509.3 276.513 509.704 277.291 510.107L267.766 528.537ZM451.629 524.963L441.384 506.908C442.148 506.476 442.897 506.044 443.646 505.611L454.15 523.508C453.315 523.998 452.479 524.488 451.629 524.963ZM258.804 523.609C257.968 523.119 257.132 522.615 256.296 522.11L267.06 504.358C267.809 504.805 268.559 505.251 269.308 505.698L258.804 523.609ZM460.361 519.704L449.194 502.211C449.929 501.75 450.649 501.274 451.369 500.799L462.81 518.119C462.004 518.652 461.182 519.171 460.361 519.704ZM250.1 518.205C249.293 517.672 248.487 517.125 247.68 516.577L259.366 499.415C260.086 499.905 260.807 500.395 261.541 500.871L250.1 518.205ZM468.834 513.969L456.73 497.11C457.436 496.605 458.156 496.087 458.862 495.568L471.182 512.283C470.39 512.845 469.612 513.407 468.834 513.969ZM241.714 512.355C240.936 511.779 240.158 511.202 239.38 510.612L251.93 494.084C252.622 494.617 253.328 495.136 254.034 495.654L241.714 512.355ZM476.946 507.831L464.021 491.591C464.698 491.058 465.361 490.51 466.038 489.963L479.237 505.986C478.473 506.606 477.71 507.225 476.946 507.831ZM233.659 506.073C232.91 505.453 232.161 504.833 231.412 504.199L244.841 488.363C245.504 488.925 246.167 489.473 246.844 490.035L233.659 506.073ZM484.77 501.26L470.981 485.741C471.629 485.164 472.277 484.588 472.926 483.997L486.932 499.314C486.226 499.963 485.505 500.611 484.77 501.26ZM225.922 499.372C225.201 498.724 224.495 498.061 223.789 497.398L237.997 482.268C238.631 482.873 239.279 483.464 239.927 484.055L225.922 499.372ZM492.22 494.286L477.666 479.487C478.286 478.882 478.891 478.262 479.496 477.657L494.295 492.211C493.618 492.917 492.926 493.608 492.22 494.286ZM218.573 492.311C217.881 491.62 217.204 490.914 216.527 490.208L231.541 475.87C232.132 476.49 232.737 477.109 233.342 477.729L218.573 492.311ZM499.309 486.922L483.992 472.916C484.583 472.282 485.159 471.634 485.736 470.985L501.269 484.761C500.62 485.481 499.972 486.202 499.309 486.922ZM211.599 484.847C210.95 484.127 210.316 483.392 209.682 482.657L225.403 469.098C225.965 469.761 226.541 470.409 227.118 471.057L211.599 484.847ZM506.01 479.213L489.986 466.014C490.534 465.337 491.082 464.674 491.629 463.997L507.854 476.936C507.234 477.7 506.629 478.464 506.01 479.213ZM205.014 477.037C204.408 476.274 203.803 475.51 203.198 474.732L219.625 462.051C220.158 462.729 220.691 463.406 221.224 464.083L205.014 477.037ZM512.292 471.144L495.592 458.824C496.11 458.118 496.615 457.412 497.133 456.706L514.021 468.781C513.445 469.573 512.868 470.351 512.292 471.144ZM198.861 468.896C198.299 468.103 197.737 467.311 197.189 466.518L214.236 454.674C214.74 455.394 215.23 456.1 215.734 456.806L198.861 468.896ZM518.142 462.772L500.822 451.331C501.298 450.61 501.773 449.89 502.234 449.155L519.742 460.308C519.208 461.129 518.675 461.951 518.142 462.772ZM193.14 460.438C192.622 459.616 192.103 458.795 191.599 457.974L209.25 447.051C209.711 447.786 210.172 448.521 210.633 449.256L193.14 460.438ZM523.56 454.069L505.649 443.578C506.096 442.829 506.528 442.065 506.961 441.302L525.015 451.547C524.525 452.383 524.05 453.233 523.56 454.069ZM187.881 451.72C187.406 450.87 186.93 450.02 186.455 449.169L204.653 439.184C205.071 439.947 205.489 440.697 205.921 441.446L187.881 451.72ZM528.488 445.106L510.059 435.552C510.462 434.774 510.851 434.011 511.24 433.232L529.814 442.498C529.381 443.377 528.935 444.241 528.488 445.106ZM183.068 442.728C182.636 441.864 182.204 440.985 181.786 440.106L200.489 431.1C200.864 431.878 201.238 432.656 201.628 433.42L183.068 442.728ZM532.955 435.884L514.035 427.353C514.396 426.561 514.756 425.754 515.102 424.961L534.151 433.218C533.762 434.111 533.358 434.99 532.955 435.884ZM178.76 433.477C178.371 432.584 177.996 431.691 177.622 430.797L196.772 422.8C197.103 423.592 197.449 424.399 197.795 425.192L178.76 433.477ZM536.932 426.446L517.58 418.909C517.897 418.102 518.214 417.281 518.517 416.46L537.969 423.708C537.624 424.63 537.278 425.538 536.932 426.446ZM174.941 424.039C174.596 423.131 174.264 422.209 173.933 421.287L193.486 414.327C193.774 415.148 194.077 415.955 194.38 416.762L174.941 424.039ZM540.39 416.777L520.664 410.307C520.938 409.471 521.197 408.635 521.471 407.8L541.284 413.981C540.995 414.932 540.707 415.855 540.39 416.777ZM171.613 414.356C171.325 413.434 171.037 412.512 170.763 411.589L190.648 405.624C190.907 406.46 191.152 407.31 191.426 408.145L171.613 414.356ZM543.33 407.007L523.301 401.56C523.531 400.725 523.747 399.889 523.964 399.053L544.079 404.168C543.834 405.105 543.589 406.056 543.33 407.007ZM168.803 404.529C168.558 403.592 168.328 402.641 168.097 401.69L188.284 396.848C188.486 397.699 188.702 398.534 188.918 399.37L168.803 404.529ZM545.736 397.05L525.433 392.698C525.621 391.848 525.793 390.998 525.966 390.148L546.327 394.197C546.139 395.148 545.938 396.099 545.736 397.05ZM166.526 394.572C166.339 393.621 166.152 392.655 165.979 391.704L186.397 387.929C186.555 388.779 186.714 389.644 186.887 390.494L166.526 394.572ZM547.609 387.021L527.119 383.721C527.249 382.871 527.379 382.021 527.508 381.156L548.056 384.11C547.912 385.09 547.768 386.056 547.609 387.021ZM164.783 384.485C164.639 383.52 164.509 382.569 164.379 381.603L184.956 378.894C185.071 379.759 185.186 380.623 185.316 381.488L164.783 384.485ZM548.964 376.877L528.315 374.687C528.402 373.822 528.488 372.972 528.574 372.107L549.252 373.966C549.151 374.932 549.065 375.911 548.964 376.877ZM163.573 374.355C163.486 373.375 163.4 372.41 163.328 371.43L184.019 369.845C184.077 370.71 184.163 371.574 184.235 372.424L163.573 374.355ZM549.771 366.675L529.036 365.609C529.079 364.73 529.122 363.865 529.151 362.986L549.886 363.779C549.857 364.744 549.814 365.709 549.771 366.675ZM162.91 364.153C162.866 363.188 162.838 362.222 162.809 361.242L183.558 360.724C183.573 361.588 183.601 362.467 183.645 363.332L162.91 364.153ZM529.281 356.473C529.281 355.522 529.281 354.701 529.266 353.865L550.016 353.548C550.03 354.499 550.044 355.464 550.03 356.415L529.281 356.473ZM183.515 354.196L162.766 353.951C162.78 352.971 162.794 352.006 162.823 351.041L183.573 351.588C183.544 352.453 183.529 353.332 183.515 354.196ZM529.036 347.352C528.992 346.473 528.935 345.608 528.877 344.729L549.583 343.36C549.641 344.326 549.699 345.291 549.756 346.257L529.036 347.352ZM183.875 345.089L163.155 343.749C163.212 342.784 163.284 341.804 163.371 340.839L184.063 342.481C183.991 343.346 183.933 344.21 183.875 345.089ZM528.33 338.245C528.243 337.38 528.142 336.516 528.041 335.651L548.647 333.187C548.762 334.153 548.877 335.118 548.978 336.098L528.33 338.245ZM184.697 335.997L164.077 333.562C164.192 332.596 164.307 331.631 164.437 330.665L185.014 333.403C184.913 334.282 184.812 335.132 184.697 335.997ZM527.148 329.196C527.018 328.331 526.874 327.481 526.716 326.631L547.163 323.072C547.335 324.023 547.494 324.988 547.638 325.954L527.148 329.196ZM186.008 326.977L165.547 323.446C165.705 322.481 165.878 321.53 166.065 320.579L186.469 324.397C186.31 325.262 186.152 326.112 186.008 326.977ZM525.476 320.247C525.289 319.397 525.102 318.533 524.915 317.682L545.145 313.043C545.361 313.994 545.577 314.93 545.779 315.881L525.476 320.247ZM187.795 318.028L167.55 313.432C167.766 312.481 167.996 311.515 168.227 310.564L188.385 315.507C188.184 316.342 187.982 317.193 187.795 318.028ZM523.33 311.371C523.099 310.535 522.868 309.685 522.623 308.849L542.58 303.158C542.84 304.094 543.099 305.017 543.358 305.953L523.33 311.371ZM190.057 309.195L170.086 303.532C170.345 302.596 170.619 301.659 170.907 300.722L190.792 306.688C190.532 307.524 190.287 308.36 190.057 309.195ZM520.721 302.639C520.448 301.818 520.174 300.982 519.886 300.161L539.511 293.388C539.828 294.31 540.131 295.232 540.448 296.155L520.721 302.639ZM192.78 300.478L173.14 293.748C173.457 292.826 173.774 291.904 174.106 290.982L193.645 297.999C193.357 298.82 193.068 299.642 192.78 300.478ZM517.652 294.051C517.335 293.244 517.018 292.437 516.687 291.63L535.923 283.835C536.283 284.728 536.644 285.636 536.99 286.529L517.652 294.051ZM195.979 291.904L176.728 284.137C177.088 283.229 177.463 282.336 177.838 281.443L196.973 289.497C196.642 290.29 196.31 291.097 195.979 291.904ZM514.136 285.665C513.776 284.872 513.416 284.094 513.056 283.301L531.86 274.497C532.278 275.376 532.681 276.255 533.07 277.149L514.136 285.665ZM199.625 283.518L180.806 274.742C181.224 273.849 181.642 272.97 182.074 272.076L200.734 281.169C200.374 281.947 199.999 282.725 199.625 283.518ZM510.188 277.466C509.785 276.687 509.381 275.924 508.978 275.16L527.292 265.376C527.753 266.226 528.2 267.091 528.647 267.955L510.188 277.466ZM203.717 275.347L185.388 265.592C185.849 264.728 186.31 263.877 186.786 263.027L204.956 273.056C204.538 273.806 204.12 274.569 203.717 275.347ZM505.793 269.483C505.361 268.733 504.914 267.998 504.468 267.249L522.234 256.5C522.739 257.335 523.229 258.171 523.733 259.007L505.793 269.483ZM208.227 267.408L190.446 256.687C190.95 255.851 191.455 255.03 191.973 254.194L209.581 265.174C209.12 265.909 208.674 266.658 208.227 267.408ZM501.01 261.745C500.534 261.024 500.044 260.289 499.569 259.583L516.744 247.926C517.292 248.733 517.825 249.54 518.358 250.347L501.01 261.745ZM213.141 259.713L195.965 248.07C196.512 247.263 197.06 246.471 197.607 245.678L214.639 257.537C214.135 258.258 213.63 258.978 213.141 259.713ZM495.793 254.252C495.275 253.56 494.756 252.854 494.237 252.162L510.779 239.626C511.37 240.404 511.946 241.182 512.523 241.96L495.793 254.252ZM218.458 252.278L201.916 239.741C202.506 238.963 203.097 238.2 203.688 237.436L220.057 250.203C219.524 250.894 218.991 251.586 218.458 252.278ZM490.217 247.061C489.669 246.384 489.107 245.721 488.546 245.059L504.41 231.672C505.03 232.407 505.649 233.156 506.269 233.906L490.217 247.061ZM224.164 245.145L208.285 231.773C208.919 231.024 209.553 230.289 210.187 229.554L225.85 243.185C225.288 243.819 224.726 244.482 224.164 245.145ZM484.251 240.145C483.661 239.496 483.084 238.862 482.479 238.228L497.623 224.035C498.286 224.741 498.949 225.462 499.612 226.182L484.251 240.145ZM230.23 238.315L215.071 224.136C215.734 223.43 216.411 222.724 217.089 222.018L232.031 236.442C231.426 237.047 230.821 237.681 230.23 238.315ZM477.926 233.56C477.306 232.955 476.687 232.349 476.067 231.744L490.433 216.758C491.139 217.435 491.831 218.113 492.522 218.804L477.926 233.56ZM236.642 231.816L222.262 216.845C222.953 216.167 223.659 215.505 224.38 214.842L238.544 230.015C237.896 230.62 237.262 231.211 236.642 231.816ZM471.298 227.32C470.649 226.744 469.986 226.168 469.323 225.591L482.897 209.885C483.632 210.519 484.352 211.153 485.087 211.801L471.298 227.32ZM243.386 225.663L229.798 209.971C230.533 209.337 231.282 208.703 232.017 208.069L245.36 223.977C244.697 224.539 244.034 225.101 243.386 225.663ZM464.295 221.412C463.617 220.865 462.94 220.332 462.249 219.799L474.986 203.415C475.75 204.02 476.528 204.611 477.277 205.231L464.295 221.412ZM250.432 219.871L237.68 203.487C238.443 202.882 239.221 202.291 240.014 201.7L252.492 218.286C251.801 218.819 251.109 219.352 250.432 219.871ZM457.032 215.908C456.326 215.404 455.606 214.899 454.885 214.395L466.744 197.363C467.537 197.911 468.329 198.473 469.122 199.049L457.032 215.908ZM257.766 214.467L245.893 197.435C246.685 196.873 247.492 196.326 248.299 195.792L259.913 212.997C259.193 213.487 258.487 213.977 257.766 214.467ZM449.467 210.764C448.733 210.288 447.998 209.827 447.263 209.366L458.214 191.729C459.035 192.248 459.871 192.766 460.692 193.285L449.467 210.764ZM265.389 209.453L254.423 191.83C255.245 191.311 256.08 190.807 256.93 190.302L267.608 208.113C266.844 208.559 266.109 209.006 265.389 209.453ZM441.658 206.038C440.908 205.605 440.145 205.187 439.381 204.769L449.367 186.57C450.231 187.046 451.081 187.521 451.931 187.997L441.658 206.038ZM273.242 204.856L263.213 186.671C264.063 186.21 264.913 185.735 265.778 185.288L275.518 203.617C274.755 204.02 273.991 204.438 273.242 204.856ZM433.588 201.729C432.81 201.34 432.032 200.951 431.254 200.576L440.274 181.873C441.153 182.305 442.032 182.723 442.911 183.17L433.588 201.729ZM281.325 200.677L272.276 181.988C273.141 181.57 274.02 181.152 274.899 180.749L283.674 199.553C282.896 199.928 282.103 200.288 281.325 200.677ZM425.317 197.853C424.525 197.507 423.718 197.161 422.911 196.83L430.923 177.68C431.83 178.054 432.724 178.443 433.617 178.832L425.317 197.853ZM289.611 196.931L281.57 177.795C282.464 177.42 283.357 177.046 284.25 176.685L292.017 195.936C291.21 196.268 290.403 196.585 289.611 196.931ZM416.845 194.409C416.038 194.106 415.217 193.804 414.395 193.516L421.369 173.962C422.291 174.293 423.214 174.625 424.136 174.971L416.845 194.409ZM298.069 193.631L291.052 174.092C291.959 173.76 292.882 173.443 293.804 173.126L300.519 192.766C299.712 193.04 298.89 193.328 298.069 193.631ZM408.199 191.441C407.363 191.181 406.528 190.922 405.692 190.677L411.629 170.792C412.565 171.066 413.502 171.354 414.424 171.656L408.199 191.441ZM306.743 190.778L300.763 170.893C301.7 170.619 302.622 170.345 303.559 170.071L309.236 190.043C308.415 190.274 307.579 190.518 306.743 190.778ZM399.424 188.933C398.574 188.717 397.738 188.501 396.888 188.299L401.758 168.126C402.695 168.357 403.646 168.587 404.582 168.832L399.424 188.933ZM315.547 188.386L310.648 168.213C311.599 167.982 312.536 167.751 313.487 167.55L318.083 187.795C317.233 187.982 316.383 188.184 315.547 188.386ZM390.519 186.887C389.669 186.714 388.819 186.556 387.969 186.397L391.744 165.979C392.709 166.152 393.66 166.339 394.626 166.541L390.519 186.887ZM324.452 186.469L320.634 166.066C321.585 165.893 322.55 165.72 323.516 165.547L327.017 186.008C326.153 186.152 325.303 186.311 324.452 186.469ZM381.556 185.331C380.692 185.201 379.827 185.086 378.963 184.971L381.672 164.394C382.637 164.524 383.588 164.653 384.554 164.797L381.556 185.331ZM333.458 185.014L330.72 164.437C331.686 164.308 332.666 164.192 333.631 164.077L336.037 184.697C335.173 184.798 334.323 184.899 333.458 185.014ZM372.507 184.25C371.643 184.164 370.764 184.092 369.899 184.034L371.513 163.342C372.479 163.414 373.444 163.501 374.409 163.587L372.507 184.25ZM342.536 184.063L340.893 163.371C341.859 163.299 342.839 163.227 343.804 163.155L345.144 183.876C344.265 183.933 343.401 183.991 342.536 184.063ZM363.386 183.645C362.522 183.616 361.643 183.588 360.778 183.559L361.297 162.809C362.277 162.838 363.242 162.867 364.208 162.91L363.386 183.645ZM351.643 183.573L351.095 162.823C352.061 162.795 353.026 162.78 353.991 162.766L354.265 183.515C353.386 183.53 352.507 183.544 351.643 183.573Z" fill="#29292E"/>
<path opacity="0.55" d="M356.496 450.805C304.491 450.805 262.188 408.502 262.188 356.497C262.188 304.492 304.491 262.189 356.496 262.189C408.501 262.189 450.804 304.492 450.804 356.497C450.804 408.502 408.485 450.805 356.496 450.805ZM356.496 263.737C305.337 263.737 263.72 305.354 263.72 356.513C263.72 407.672 305.337 449.289 356.496 449.289C407.656 449.289 449.272 407.672 449.272 356.513C449.256 305.354 407.64 263.737 356.496 263.737Z" fill="#202024"/>
<circle cx="356.001" cy="356" r="348.784" stroke="#202024" stroke-width="1.6036"/>
<path d="M198.897 158.757H197.688V154.541H193.09V158.757H191.888V149.636H193.09V153.558H197.688V149.636H198.897V158.757Z" fill="#323238"/>
<path d="M207.147 150.626H204.215V158.757H203.019V150.626H200.094V149.636H207.147V150.626Z" fill="#323238"/>
<path d="M210.053 149.636L213.035 157.078L216.017 149.636H217.577V158.757H216.374V155.205L216.487 151.371L213.492 158.757H212.572L209.584 151.39L209.703 155.205V158.757H208.5V149.636H210.053Z" fill="#323238"/>
<path d="M220.909 157.773H225.231V158.757H219.7V149.636H220.909V157.773Z" fill="#323238"/>
<path d="M472.813 407.629C472.7 408.593 472.343 409.339 471.741 409.865C471.144 410.387 470.349 410.648 469.355 410.648C468.277 410.648 467.413 410.262 466.762 409.489C466.114 408.716 465.791 407.683 465.791 406.388V405.511C465.791 404.664 465.941 403.918 466.242 403.275C466.546 402.632 466.977 402.139 467.532 401.797C468.087 401.45 468.731 401.277 469.461 401.277C470.43 401.277 471.207 401.548 471.792 402.091C472.376 402.63 472.717 403.377 472.813 404.334H471.604C471.499 403.607 471.272 403.081 470.921 402.755C470.574 402.429 470.088 402.266 469.461 402.266C468.693 402.266 468.09 402.55 467.651 403.118C467.217 403.686 467 404.494 467 405.543V406.426C467 407.416 467.206 408.203 467.62 408.787C468.033 409.372 468.612 409.664 469.355 409.664C470.023 409.664 470.535 409.514 470.89 409.213C471.249 408.909 471.487 408.38 471.604 407.629H472.813Z" fill="#323238"/>
<path d="M477.147 406.457C476.116 406.161 475.364 405.797 474.892 405.367C474.425 404.933 474.191 404.398 474.191 403.764C474.191 403.045 474.477 402.452 475.049 401.985C475.625 401.513 476.373 401.277 477.291 401.277C477.918 401.277 478.475 401.398 478.964 401.64C479.457 401.882 479.837 402.216 480.104 402.642C480.375 403.068 480.511 403.534 480.511 404.039H479.302C479.302 403.488 479.127 403.056 478.776 402.743C478.425 402.425 477.93 402.266 477.291 402.266C476.698 402.266 476.235 402.398 475.901 402.661C475.571 402.92 475.406 403.281 475.406 403.745C475.406 404.116 475.563 404.432 475.876 404.691C476.193 404.945 476.73 405.179 477.486 405.392C478.246 405.605 478.839 405.841 479.265 406.1C479.695 406.355 480.012 406.653 480.217 406.996C480.426 407.338 480.53 407.741 480.53 408.205C480.53 408.944 480.242 409.537 479.666 409.984C479.089 410.427 478.319 410.648 477.354 410.648C476.728 410.648 476.143 410.529 475.6 410.291C475.057 410.049 474.638 409.719 474.341 409.301C474.049 408.883 473.903 408.409 473.903 407.879H475.112C475.112 408.43 475.314 408.867 475.719 409.188C476.128 409.506 476.673 409.664 477.354 409.664C477.989 409.664 478.475 409.535 478.814 409.276C479.152 409.017 479.321 408.664 479.321 408.217C479.321 407.771 479.164 407.426 478.851 407.184C478.538 406.937 477.97 406.695 477.147 406.457Z" fill="#323238"/>
<path d="M484.764 406.457C483.733 406.161 482.981 405.797 482.509 405.367C482.042 404.933 481.808 404.398 481.808 403.764C481.808 403.045 482.094 402.452 482.666 401.985C483.242 401.513 483.99 401.277 484.909 401.277C485.535 401.277 486.092 401.398 486.581 401.64C487.074 401.882 487.454 402.216 487.721 402.642C487.993 403.068 488.128 403.534 488.128 404.039H486.919C486.919 403.488 486.744 403.056 486.393 402.743C486.042 402.425 485.547 402.266 484.909 402.266C484.316 402.266 483.852 402.398 483.518 402.661C483.188 402.92 483.023 403.281 483.023 403.745C483.023 404.116 483.18 404.432 483.493 404.691C483.81 404.945 484.347 405.179 485.103 405.392C485.863 405.605 486.456 405.841 486.882 406.1C487.312 406.355 487.629 406.653 487.834 406.996C488.043 407.338 488.147 407.741 488.147 408.205C488.147 408.944 487.859 409.537 487.283 409.984C486.706 410.427 485.936 410.648 484.971 410.648C484.345 410.648 483.76 410.529 483.217 410.291C482.674 410.049 482.255 409.719 481.958 409.301C481.666 408.883 481.52 408.409 481.52 407.879H482.729C482.729 408.43 482.931 408.867 483.336 409.188C483.746 409.506 484.29 409.664 484.971 409.664C485.606 409.664 486.092 409.535 486.431 409.276C486.769 409.017 486.938 408.664 486.938 408.217C486.938 407.771 486.781 407.426 486.468 407.184C486.155 406.937 485.587 406.695 484.764 406.457Z" fill="#323238"/>
<path d="M163.637 538.51H164.846V544.968C164.846 545.841 164.582 546.524 164.056 547.017C163.534 547.51 162.837 547.756 161.964 547.756C161.058 547.756 160.352 547.524 159.847 547.061C159.342 546.597 159.089 545.948 159.089 545.112H160.292C160.292 545.635 160.434 546.042 160.718 546.334C161.006 546.626 161.421 546.772 161.964 546.772C162.461 546.772 162.862 546.616 163.167 546.303C163.476 545.989 163.632 545.551 163.637 544.987V538.51Z" fill="#323238"/>
<path d="M170.897 547.631C170.83 547.497 170.776 547.259 170.734 546.917C170.195 547.476 169.552 547.756 168.804 547.756C168.136 547.756 167.587 547.568 167.157 547.192C166.731 546.812 166.518 546.332 166.518 545.751C166.518 545.046 166.785 544.499 167.32 544.11C167.859 543.718 168.614 543.521 169.587 543.521H170.715V542.989C170.715 542.584 170.594 542.262 170.352 542.024C170.109 541.782 169.752 541.661 169.281 541.661C168.867 541.661 168.52 541.765 168.241 541.974C167.961 542.183 167.821 542.436 167.821 542.732H166.656C166.656 542.394 166.775 542.068 167.013 541.755C167.255 541.438 167.581 541.187 167.99 541.003C168.404 540.82 168.857 540.728 169.349 540.728C170.13 540.728 170.742 540.924 171.185 541.316C171.627 541.705 171.857 542.241 171.874 542.926V546.046C171.874 546.668 171.953 547.163 172.112 547.53V547.631H170.897ZM168.974 546.747C169.337 546.747 169.681 546.653 170.007 546.466C170.333 546.278 170.569 546.033 170.715 545.733V544.342H169.807C168.387 544.342 167.677 544.758 167.677 545.589C167.677 545.952 167.798 546.236 168.04 546.44C168.282 546.645 168.594 546.747 168.974 546.747Z" fill="#323238"/>
<path d="M175.826 546.058L177.505 540.853H178.689L176.259 547.631H175.375L172.92 540.853H174.104L175.826 546.058Z" fill="#323238"/>
<path d="M183.888 547.631C183.822 547.497 183.767 547.259 183.725 546.917C183.187 547.476 182.544 547.756 181.796 547.756C181.128 547.756 180.579 547.568 180.149 547.192C179.723 546.812 179.51 546.332 179.51 545.751C179.51 545.046 179.777 544.499 180.312 544.11C180.85 543.718 181.606 543.521 182.579 543.521H183.707V542.989C183.707 542.584 183.586 542.262 183.343 542.024C183.101 541.782 182.744 541.661 182.272 541.661C181.859 541.661 181.512 541.765 181.232 541.974C180.953 542.183 180.813 542.436 180.813 542.732H179.648C179.648 542.394 179.767 542.068 180.005 541.755C180.247 541.438 180.573 541.187 180.982 541.003C181.395 540.82 181.848 540.728 182.341 540.728C183.122 540.728 183.734 540.924 184.176 541.316C184.619 541.705 184.849 542.241 184.866 542.926V546.046C184.866 546.668 184.945 547.163 185.104 547.53V547.631H183.888ZM181.965 546.747C182.329 546.747 182.673 546.653 182.999 546.466C183.325 546.278 183.561 546.033 183.707 545.733V544.342H182.798C181.379 544.342 180.669 544.758 180.669 545.589C180.669 545.952 180.79 546.236 181.032 546.44C181.274 546.645 181.585 546.747 181.965 546.747Z" fill="#323238"/>
<path d="M189.551 543.565C188.52 543.269 187.768 542.905 187.296 542.475C186.828 542.041 186.594 541.506 186.594 540.872C186.594 540.153 186.88 539.56 187.453 539.093C188.029 538.621 188.776 538.385 189.695 538.385C190.322 538.385 190.879 538.506 191.368 538.748C191.86 538.99 192.24 539.324 192.508 539.75C192.779 540.176 192.915 540.642 192.915 541.147H191.706C191.706 540.596 191.531 540.164 191.18 539.851C190.829 539.533 190.334 539.375 189.695 539.375C189.102 539.375 188.639 539.506 188.305 539.769C187.975 540.028 187.81 540.389 187.81 540.853C187.81 541.225 187.966 541.54 188.279 541.799C188.597 542.054 189.133 542.287 189.889 542.5C190.649 542.713 191.242 542.949 191.668 543.208C192.098 543.463 192.416 543.762 192.62 544.104C192.829 544.446 192.934 544.849 192.934 545.313C192.934 546.052 192.646 546.645 192.069 547.092C191.493 547.535 190.722 547.756 189.758 547.756C189.131 547.756 188.547 547.637 188.004 547.399C187.461 547.157 187.041 546.827 186.745 546.409C186.452 545.992 186.306 545.518 186.306 544.987H187.515C187.515 545.538 187.718 545.975 188.123 546.296C188.532 546.614 189.077 546.772 189.758 546.772C190.393 546.772 190.879 546.643 191.217 546.384C191.556 546.125 191.725 545.772 191.725 545.325C191.725 544.879 191.568 544.534 191.255 544.292C190.942 544.046 190.374 543.803 189.551 543.565Z" fill="#323238"/>
<path d="M197.018 546.81C197.431 546.81 197.793 546.685 198.102 546.434C198.411 546.184 198.582 545.87 198.615 545.495H199.711C199.691 545.883 199.557 546.253 199.311 546.603C199.064 546.954 198.734 547.234 198.321 547.443C197.912 547.652 197.477 547.756 197.018 547.756C196.095 547.756 195.36 547.449 194.813 546.835C194.27 546.217 193.999 545.374 193.999 544.304V544.11C193.999 543.45 194.12 542.864 194.362 542.35C194.604 541.836 194.951 541.438 195.402 541.154C195.857 540.87 196.394 540.728 197.012 540.728C197.772 540.728 198.402 540.955 198.903 541.41C199.409 541.866 199.678 542.457 199.711 543.183H198.615C198.582 542.745 198.415 542.386 198.114 542.106C197.818 541.822 197.45 541.68 197.012 541.68C196.423 541.68 195.965 541.893 195.64 542.319C195.318 542.741 195.157 543.352 195.157 544.154V544.373C195.157 545.154 195.318 545.756 195.64 546.177C195.961 546.599 196.421 546.81 197.018 546.81Z" fill="#323238"/>
<path d="M204.29 541.893C204.115 541.864 203.925 541.849 203.72 541.849C202.96 541.849 202.445 542.173 202.173 542.82V547.631H201.014V540.853H202.142L202.161 541.636C202.541 541.03 203.079 540.728 203.777 540.728C204.002 540.728 204.174 540.757 204.29 540.815V541.893Z" fill="#323238"/>
<path d="M206.621 547.631H205.462V540.853H206.621V547.631ZM205.368 539.055C205.368 538.867 205.424 538.709 205.537 538.579C205.654 538.45 205.825 538.385 206.051 538.385C206.276 538.385 206.447 538.45 206.564 538.579C206.681 538.709 206.74 538.867 206.74 539.055C206.74 539.243 206.681 539.4 206.564 539.525C206.447 539.65 206.276 539.713 206.051 539.713C205.825 539.713 205.654 539.65 205.537 539.525C205.424 539.4 205.368 539.243 205.368 539.055Z" fill="#323238"/>
<path d="M214.206 544.317C214.206 545.348 213.971 546.179 213.499 546.81C213.027 547.441 212.388 547.756 211.582 547.756C210.759 547.756 210.112 547.495 209.64 546.973V550.237H208.481V540.853H209.54L209.596 541.605C210.068 541.02 210.724 540.728 211.563 540.728C212.377 540.728 213.02 541.035 213.492 541.648C213.968 542.262 214.206 543.116 214.206 544.21V544.317ZM213.048 544.185C213.048 543.421 212.885 542.818 212.559 542.375C212.233 541.932 211.786 541.711 211.219 541.711C210.517 541.711 209.991 542.022 209.64 542.644V545.883C209.987 546.501 210.517 546.81 211.231 546.81C211.786 546.81 212.227 546.591 212.553 546.152C212.883 545.71 213.048 545.054 213.048 544.185Z" fill="#323238"/>
<path d="M217.257 539.212V540.853H218.522V541.749H217.257V545.952C217.257 546.223 217.313 546.428 217.426 546.566C217.539 546.699 217.731 546.766 218.003 546.766C218.136 546.766 218.32 546.741 218.554 546.691V547.631C218.249 547.714 217.952 547.756 217.664 547.756C217.146 547.756 216.756 547.599 216.493 547.286C216.23 546.973 216.098 546.528 216.098 545.952V541.749H214.864V540.853H216.098V539.212H217.257Z" fill="#323238"/>
</g>
</svg>
